<svg width="2761" height="914" viewBox="0 0 2761 914" fill="none" xmlns="http://www.w3.org/2000/svg">
<path d="M497 257H555L695 428.5L862 257H957V486.5H877L957 606V657H896.5L786.5 496L839.5 439.5H877V357L686.5 551.5L584.5 428.5V657H497V257Z" fill="url(#paint0_angular_5_2)"/>
<path d="M497 257H555L695 428.5L862 257H957V486.5H877L957 606V657H896.5L786.5 496L839.5 439.5H877V357L686.5 551.5L584.5 428.5V657H497V257Z" fill="#0B0B0B"/>
<path fill-rule="evenodd" clip-rule="evenodd" d="M1068.9 649.106C1100.87 592.333 1119.11 526.796 1119.11 457C1119.11 387.204 1100.87 321.667 1068.9 264.894V115.096H919.106C862.333 83.1282 796.796 64.8921 727 64.8921C657.204 64.8921 591.667 83.1282 534.894 115.096H385.096V264.894C353.128 321.667 334.892 387.204 334.892 457C334.892 526.796 353.128 592.333 385.096 649.106V798.904H534.894C591.667 830.872 657.204 849.108 727 849.108C796.796 849.108 862.333 830.872 919.106 798.904H1068.9V649.106ZM1097.58 665.221C1132.23 603.686 1152 532.651 1152 457C1152 381.349 1132.23 310.314 1097.58 248.779V86.415H935.221C873.685 51.7659 802.651 32 727 32C651.349 32 580.315 51.7659 518.779 86.415H356.415V248.78C321.766 310.315 302 381.349 302 457C302 532.651 321.766 603.685 356.415 665.22V827.585H518.779C580.315 862.234 651.349 882 727 882C802.651 882 873.685 862.234 935.221 827.585H1097.58V665.221Z" fill="#FB912E"/>
<path d="M1322.82 541.734H1426.22C1447.42 541.734 1465.64 544.908 1480.87 551.256C1496.23 557.604 1508.04 566.998 1516.29 579.439C1524.54 591.881 1528.67 607.179 1528.67 625.333C1528.67 640.187 1526.13 652.945 1521.05 663.609C1516.1 674.146 1509.06 682.97 1499.92 690.079C1490.9 697.062 1480.3 702.647 1468.11 706.837L1450.02 716.358H1360.14L1359.76 671.798H1426.6C1436.63 671.798 1444.94 670.021 1451.55 666.466C1458.15 662.911 1463.1 657.96 1466.4 651.612C1469.83 645.265 1471.54 637.901 1471.54 629.522C1471.54 620.636 1469.89 612.955 1466.59 606.48C1463.29 600.006 1458.27 595.055 1451.55 591.627C1444.82 588.199 1436.38 586.485 1426.22 586.485H1379.94V819H1322.82V541.734ZM1477.83 819L1414.6 695.411L1474.97 695.03L1538.95 816.334V819H1477.83ZM1685.39 589.151L1609.98 819H1549.24L1652.26 541.734H1690.92L1685.39 589.151ZM1748.04 819L1672.44 589.151L1666.35 541.734H1705.39L1808.98 819H1748.04ZM1744.62 715.787V760.538H1598.18V715.787H1744.62ZM1946.85 733.878V541.734H2003.79V733.878C2003.79 752.413 1999.73 768.346 1991.6 781.676C1983.48 794.879 1972.37 805.035 1958.28 812.145C1944.31 819.254 1928.57 822.809 1911.05 822.809C1892.9 822.809 1876.84 819.762 1862.87 813.668C1848.91 807.574 1837.93 798.243 1829.93 785.675C1821.93 772.979 1817.93 756.92 1817.93 737.496H1875.25C1875.25 747.652 1876.65 755.714 1879.44 761.681C1882.36 767.647 1886.49 771.9 1891.82 774.439C1897.15 776.979 1903.56 778.248 1911.05 778.248C1918.29 778.248 1924.57 776.534 1929.91 773.106C1935.24 769.679 1939.36 764.664 1942.28 758.062C1945.33 751.461 1946.85 743.399 1946.85 733.878ZM2176.51 541.734V819H2119.57V541.734H2176.51ZM2261.82 541.734V586.485H2035.59V541.734H2261.82ZM2386.56 589.151L2311.15 819H2250.4L2353.42 541.734H2392.08L2386.56 589.151ZM2449.21 819L2373.61 589.151L2367.51 541.734H2406.55L2510.14 819H2449.21ZM2445.78 715.787V760.538H2299.34V715.787H2445.78ZM2535.85 541.734H2639.26C2660.46 541.734 2678.67 544.908 2693.91 551.256C2709.27 557.604 2721.08 566.998 2729.33 579.439C2737.58 591.881 2741.71 607.179 2741.71 625.333C2741.71 640.187 2739.17 652.945 2734.09 663.609C2729.14 674.146 2722.09 682.97 2712.95 690.079C2703.94 697.062 2693.34 702.647 2681.15 706.837L2663.06 716.358H2573.18L2572.8 671.798H2639.64C2649.67 671.798 2657.98 670.021 2664.58 666.466C2671.18 662.911 2676.14 657.96 2679.44 651.612C2682.86 645.265 2684.58 637.901 2684.58 629.522C2684.58 620.636 2682.93 612.955 2679.63 606.48C2676.33 600.006 2671.31 595.055 2664.58 591.627C2657.85 588.199 2649.41 586.485 2639.26 586.485H2592.98V819H2535.85V541.734ZM2690.86 819L2627.64 695.411L2688.01 695.03L2751.99 816.334V819H2690.86Z" fill="#0B0B0B"/>
<path d="M1370.84 84.7344H1419.21L1490.43 288.304L1561.66 84.7344H1610.02L1509.86 362H1471.01L1370.84 84.7344ZM1344.76 84.7344H1392.93L1401.69 283.162V362H1344.76V84.7344ZM1587.93 84.7344H1636.3V362H1579.17V283.162L1587.93 84.7344ZM1802.55 132.151L1727.14 362H1666.39L1769.41 84.7344H1808.07L1802.55 132.151ZM1865.2 362L1789.6 132.151L1783.51 84.7344H1822.54L1926.14 362H1865.2ZM1861.77 258.787V303.538H1715.33V258.787H1861.77ZM2109.14 270.022H2166.08C2164.94 288.685 2159.79 305.252 2150.65 319.725C2141.64 334.197 2129.01 345.496 2112.76 353.621C2096.64 361.746 2077.21 365.809 2054.49 365.809C2036.71 365.809 2020.78 362.762 2006.69 356.668C1992.6 350.447 1980.54 341.561 1970.51 330.008C1960.61 318.455 1953.05 304.49 1947.85 288.113C1942.64 271.736 1940.04 253.392 1940.04 233.079V213.846C1940.04 193.533 1942.71 175.188 1948.04 158.812C1953.5 142.308 1961.24 128.279 1971.27 116.727C1981.43 105.174 1993.55 96.2871 2007.64 90.0664C2021.73 83.8457 2037.48 80.7354 2054.87 80.7354C2077.97 80.7354 2097.46 84.9248 2113.33 93.3037C2129.33 101.683 2141.7 113.235 2150.46 127.962C2159.35 142.688 2164.68 159.446 2166.46 178.235H2109.33C2108.7 167.063 2106.47 157.605 2102.67 149.861C2098.86 141.99 2093.08 136.087 2085.34 132.151C2077.72 128.089 2067.56 126.058 2054.87 126.058C2045.35 126.058 2037.03 127.835 2029.92 131.39C2022.81 134.944 2016.85 140.34 2012.02 147.576C2007.2 154.812 2003.58 163.953 2001.17 174.998C1998.88 185.916 1997.74 198.738 1997.74 213.465V233.079C1997.74 247.425 1998.82 260.057 2000.98 270.975C2003.13 281.766 2006.44 290.906 2010.88 298.396C2015.45 305.76 2021.29 311.346 2028.4 315.154C2035.63 318.836 2044.33 320.677 2054.49 320.677C2066.42 320.677 2076.26 318.772 2084 314.964C2091.75 311.155 2097.65 305.506 2101.71 298.016C2105.9 290.525 2108.38 281.194 2109.14 270.022ZM2264.34 84.7344V362H2207.4V84.7344H2264.34ZM2503.9 317.439V362H2356.32V317.439H2503.9ZM2374.98 84.7344V362H2317.85V84.7344H2374.98ZM2484.67 197.659V241.077H2356.32V197.659H2484.67ZM2503.71 84.7344V129.485H2356.32V84.7344H2503.71ZM2649.39 276.878V84.7344H2706.33V276.878C2706.33 295.413 2702.27 311.346 2694.14 324.676C2686.02 337.879 2674.91 348.035 2660.82 355.145C2646.85 362.254 2631.11 365.809 2613.59 365.809C2595.43 365.809 2579.38 362.762 2565.41 356.668C2551.45 350.574 2540.46 341.243 2532.47 328.675C2524.47 315.979 2520.47 299.92 2520.47 280.496H2577.79C2577.79 290.652 2579.18 298.714 2581.98 304.681C2584.9 310.647 2589.02 314.9 2594.36 317.439C2599.69 319.979 2606.1 321.248 2613.59 321.248C2620.83 321.248 2627.11 319.534 2632.44 316.106C2637.77 312.679 2641.9 307.664 2644.82 301.062C2647.87 294.461 2649.39 286.399 2649.39 276.878Z" fill="#0B0B0B"/>
<path fill-rule="evenodd" clip-rule="evenodd" d="M150 626C150 617.716 143.284 611 135 611H15C6.71573 611 0 617.716 0 626V746C0 754.284 6.71573 761 15 761H135C143.284 761 150 754.284 150 746V626ZM100 676C100 667.716 93.2843 661 85 661H65C56.7157 661 50 667.716 50 676V696C50 704.284 56.7157 711 65 711H85C93.2843 711 100 704.284 100 696V676Z" fill="#FB912E"/>
<path fill-rule="evenodd" clip-rule="evenodd" d="M150 197C150 188.716 143.284 182 135 182H15C6.71573 182 0 188.716 0 197V317C0 325.284 6.71573 332 15 332H135C143.284 332 150 325.284 150 317V197ZM100 247C100 238.716 93.2843 232 85 232H65C56.7157 232 50 238.716 50 247V267C50 275.284 56.7157 282 65 282H85C93.2843 282 100 275.284 100 267V247Z" fill="#FB912E"/>
<defs>
<radialGradient id="paint0_angular_5_2" cx="0" cy="0" r="1" gradientUnits="userSpaceOnUse" gradientTransform="translate(584.5 428.5) rotate(41.224) scale(778.447 868.357)">

</radialGradient>
</defs>
</svg>
